<svg xmlns="http://www.w3.org/2000/svg" shape-rendering="geometricPrecision" text-rendering="geometricPrecision" image-rendering="optimizeQuality" fill-rule="evenodd" clip-rule="evenodd" viewBox="0 0 512 506.49"><path fill-rule="nonzero" d="M370.81 308.72c7.54 0 14.76 1.53 21.38 4.27a55.85 55.85 0 0 1 18.2 12.14 55.672 55.672 0 0 1 12.16 18.17 55.943 55.943 0 0 1 4.27 21.44c0 5.51-.83 10.9-2.34 15.99a57.04 57.04 0 0 1-5.13 11.94l20.41 22.24c1.49 1.65 1.4 4.23-.25 5.74L424 434.82a4.069 4.069 0 0 1-5.73-.25l-19.43-21.36a56.39 56.39 0 0 1-11.82 5.14l-.14.03a56.023 56.023 0 0 1-16.07 2.35c-7.52 0-14.76-1.53-21.37-4.25a56.575 56.575 0 0 1-18.22-12.14 55.925 55.925 0 0 1-12.16-18.18 55.83 55.83 0 0 1-4.25-21.42c0-7.52 1.52-14.77 4.25-21.39a56.705 56.705 0 0 1 12.14-18.2 55.777 55.777 0 0 1 18.17-12.16 56.019 56.019 0 0 1 21.44-4.27zM294.24 17.11c0-9.42 9.3-17.11 20.86-17.11 11.57 0 20.87 7.64 20.87 17.11v74.85c0 9.42-9.3 17.11-20.87 17.11-11.56 0-20.86-7.65-20.86-17.11V17.11zM56.81 242.28c-1.18 0-2.24-5.2-2.24-11.57 0-6.38.94-11.53 2.24-11.53h56.94c1.19 0 2.25 5.2 2.25 11.53 0 6.39-.94 11.57-2.25 11.57H56.81zm90.78 0c-1.19 0-2.24-5.2-2.24-11.57 0-6.38.93-11.53 2.24-11.53h56.94c1.18 0 2.24 5.2 2.24 11.53 0 6.39-.94 11.57-2.24 11.57h-56.94zm90.77 0c-1.18 0-2.24-5.2-2.24-11.57 0-6.38.93-11.53 2.24-11.53h56.94c1.18 0 2.24 5.15 2.24 11.49a175.09 175.09 0 0 0-16.44 11.61h-42.74zM56.94 308.52c-1.18 0-2.24-5.2-2.24-11.57 0-6.38.93-11.58 2.24-11.58h56.94c1.18 0 2.24 5.2 2.24 11.58 0 6.37-.93 11.57-2.24 11.57H56.94zm90.77 0c-1.18 0-2.24-5.2-2.24-11.57 0-6.38.93-11.58 2.24-11.58h56.94c1.18 0 2.24 5.2 2.24 11.58 0 6.37-.93 11.57-2.24 11.57h-56.94zM57.06 374.8c-1.18 0-2.24-5.2-2.24-11.59 0-6.36.94-11.56 2.24-11.56H114c1.19 0 2.25 5.2 2.25 11.56 0 6.39-.94 11.59-2.25 11.59H57.06zm90.78 0c-1.19 0-2.25-5.2-2.25-11.59 0-6.36.94-11.56 2.25-11.56h56.94c1.18 0 2.24 5.2 2.24 11.56 0 6.39-.94 11.59-2.24 11.59h-56.94zM106.83 17.11c0-9.42 9.29-17.11 20.86-17.11s20.86 7.64 20.86 17.11v74.85c0 9.42-9.32 17.11-20.86 17.11-11.57 0-20.86-7.65-20.86-17.11V17.11zM22.98 163.64h397.39V77.46c0-2.94-1.18-5.53-3.08-7.43-1.9-1.9-4.61-3.08-7.44-3.08h-38.1c-6.39 0-11.57-5.2-11.57-11.57 0-6.38 5.18-11.58 11.57-11.58h38.1c9.34 0 17.7 3.77 23.82 9.88 6.13 6.14 9.89 14.5 9.89 23.83v136.81c-7.6-2.62-15.42-4.73-23.45-6.29v-21.38h.26H22.98v223.17c0 2.94 1.19 5.52 3.08 7.42 1.9 1.9 4.61 3.08 7.43 3.08h188.87c2.14 8.02 4.85 15.84 8.11 23.36H33.71c-9.3 0-17.7-3.75-23.82-9.89C3.75 427.72 0 419.36 0 410.02V77.55c0-9.29 3.75-17.7 9.89-23.82 6.12-6.13 14.48-9.89 23.82-9.89h40.67c6.38 0 11.58 5.2 11.58 11.57 0 6.39-5.2 11.59-11.58 11.59H33.71c-2.96 0-5.54 1.18-7.44 3.08-1.9 1.9-3.09 4.59-3.09 7.43v86.16h-.2v-.03zm158.94-96.69c-6.37 0-11.57-5.2-11.57-11.57 0-6.38 5.2-11.58 11.57-11.58h77.55c6.39 0 11.59 5.2 11.59 11.58 0 6.37-5.2 11.57-11.59 11.57h-77.55zm195.9 171.16c36.98 0 70.56 15.04 94.84 39.35 24.3 24.24 39.34 57.79 39.34 94.85 0 37.02-15.02 70.61-39.3 94.88l-.68.64c-24.23 23.88-57.5 38.66-94.2 38.66-36.99 0-70.56-15.04-94.84-39.3-24.3-24.32-39.34-57.89-39.34-94.88 0-37.06 15.04-70.61 39.31-94.89l.69-.63c24.24-23.9 57.53-38.68 94.18-38.68zm78.74 55.41c-20.09-20.11-47.96-32.58-78.74-32.58-30.5 0-58.14 12.25-78.19 32.02l-.55.6c-20.14 20.14-32.62 48-32.62 78.75 0 30.76 12.48 58.65 32.59 78.77 20.12 20.11 48 32.58 78.77 32.58 30.49 0 58.12-12.25 78.21-32.02l.54-.58c20.15-20.15 32.61-48 32.61-78.75s-12.47-58.61-32.62-78.79zm-61.02 46.46a35.48 35.48 0 0 0-11.37-7.61l-.2-.08a34.98 34.98 0 0 0-13.16-2.55c-4.76 0-9.29.95-13.37 2.63a35.48 35.48 0 0 0-11.37 7.61c-6.32 6.33-10.26 15.09-10.26 24.76 0 4.77.97 9.3 2.63 13.36 1.79 4.3 4.39 8.16 7.62 11.37 3.25 3.23 7.11 5.87 11.36 7.61 4.1 1.7 8.64 2.65 13.39 2.65s9.28-.95 13.38-2.65c4.26-1.76 8.14-4.39 11.35-7.61a35.32 35.32 0 0 0 7.63-11.37c1.68-4.08 2.63-8.61 2.63-13.36 0-4.76-.95-9.29-2.63-13.37l-.1-.22c-1.74-4.16-4.34-7.97-7.53-11.17z"/></svg>